<?xml version="1.0"?>
<svg xmlns="http://www.w3.org/2000/svg" xmlns:xlink="http://www.w3.org/1999/xlink" xmlns:svgjs="http://svgjs.com/svgjs" version="1.1" width="512" height="512" x="0" y="0" viewBox="0 0 52 60" style="enable-background:new 0 0 512 512" xml:space="preserve"><g><path xmlns="http://www.w3.org/2000/svg" id="Shape" d="m2 60h48c.5320216.0021957 1.0426111-.2094833 1.4170197-.5874649.3744085-.3779815.5812288-.8905584.5739803-1.4225351v-4.039c-.332-6.737-4-7.868-4.148-7.91l-12.843-3.788v-5.6c1.3130312-1.2122965 2.124631-2.872241 2.275-4.653h2.725c1.6568542 0 3-1.3431458 3-3v-6c-.0052514-1.2667854-.8056491-2.3937454-2-2.816v-6.184c0-7.981-6.448-14-15-14s-15 6.019-15 14v6.184c-1.19435087.4222546-1.99474861 1.5492146-2 2.816v6c.00525139 1.2667854.80564913 2.3937454 2 2.816v1.184c0 2.209139 1.790861 4 4 4h2v5.253l-12.835 3.786c-.156.044-3.822 1.175-4.155 7.961v3.973c-.01159307.5346422.19313293 1.0513248.56777203 1.4329295.37463911.3816048.88746296.5958134 1.42222797.5940705zm11-43.9c1.2693006-6.0996538 6.7758771-10.3778402 13-10.1 6.2178068-.25803626 11.7130713 4.0113615 13 10.1v3.9h-1.236c-1-4.215-2.932-5.509-3.153-5.644-2.783-1.67-11.493-1.394-14.756-1.185-.9471996.0355606-1.847864.4198298-2.529 1.079-1.4661116 1.6369572-2.5018909 3.6129796-3.014 5.75h-1.312zm6 22.68c1.636 2.12 2.406 4.22 5.422 4.22 4.533 0 5.347.416 7.705-3.013.265-.385.553-.794.874-1.212v4.067c-1.608 4.255-12.427 4.219-14 0zm14.22-3.188c-3.12 2.801-3.211 5.408-5.643 5.408-4.319 0-4.29.42-6.056-2.146-.381-.554-.831-1.189-1.389-1.854h2.146c.3544126.6167513 1.0106732.997855 1.722 1h4c1.1045695 0 2-.8954305 2-2v-2c0-1.1045695-.8954305-2-2-2h-4c-1.1045695 0-2 .8954305-2 2v1h-3.8c-1.6-1.739-1.56-3.276-1.49-5.17.126409-1.4621293.0296351-2.934981-.287-4.368-.387-2.019-.63-3.4-.15-5.063.4293275-1.7546741 1.2771512-3.3792978 2.471-4.735.3367174-.3113825.775502-.4891721 1.234-.5 3.252-.209 10.624-.456 13.61.91 1.188.922 2.644 4.119 2.405 6.663-.23 2.413-.737 3.6-.737 5.5-.002 3.108.618 4.963-2.037 7.35zm-9.22.408v-2h4v2zm17-7c0 .5522847-.4477153 1-1 1h-2.7c-.153-4.287.317-3.2.682-7.069.0230248-.3097705.0290338-.620571.018-.931h2c.5522847 0 1 .4477153 1 1zm-2.676-19.016c-2.144-2.984-5.896-5.984-12.324-5.984s-10.18 3-12.324 5.984c3.724-10.679 20.924-10.664 24.648 0zm-27.324 13.016c0-.5522847.4477153-1 1-1h2.013c.0142306 1.2909002.1626961 2.5768192.443 3.837.2993476 1.3662563.3816894 2.7711283.244 4.163h-2.7c-.5522847 0-1-.4477153-1-1zm2 10v-1h1.725c.0835316 1.0612428.413253 2.0884124.963 3h-.688c-1.1045695 0-2-.8954305-2-2zm-8.275 14.959 12.724-3.754c.792 1.395 2.962 3.795 8.551 3.795s7.759-2.4 8.551-3.8l12.711 3.75c.1.034 2.478.9 2.733 6.045v4.005h-47.985v-3.951c.256-5.199 2.628-6.06 2.715-6.09z" fill="#ffffff" data-original="#000000" style=""/></g></svg>
