<svg id="Layer_1" enable-background="new 0 0 512.057 512.057" height="512" viewBox="0 0 512.057 512.057" width="512" xmlns="http://www.w3.org/2000/svg"><path d="m448.788 370.983h13.471c27.458 0 49.797-22.339 49.797-49.797v-40.107c0-27.458-22.339-49.798-49.797-49.798h-13.471v-21.882-15-2.633c0-49.069-20.759-95.583-58.455-130.974-36.407-34.182-85.359-53.786-134.305-53.786s-97.898 19.604-134.305 53.786c-37.695 35.391-58.455 81.905-58.455 130.974v2.633 15 21.882h-13.471c-27.458 0-49.797 22.339-49.797 49.798v40.107c0 27.458 22.339 49.797 49.797 49.797h13.471v36.882h93.813v-213.466h-63.812v-2.633c0-83.888 74.535-154.759 162.76-154.759s162.76 70.871 162.76 154.759v2.633h-63.813v213.467h63.813v33.269h-116.206c-6.349-19.656-24.813-33.917-46.554-33.917-26.973 0-48.917 21.944-48.917 48.917s21.944 48.917 48.917 48.917c21.741 0 40.206-14.261 46.554-33.917h146.205zm-398.991-30c-10.917 0-19.797-8.881-19.797-19.797v-40.107c0-10.917 8.881-19.798 19.797-19.798h13.471v79.702zm77.284 36.882h-33.812v-153.466h33.813v153.466zm128.947 97.186c-10.431 0-18.917-8.486-18.917-18.917s8.486-18.917 18.917-18.917 18.917 8.486 18.917 18.917-8.486 18.917-18.917 18.917zm128.948-250.652h33.813v153.467h-33.813zm97.081 96.787c0 10.917-8.881 19.797-19.797 19.797h-13.471v-79.702h13.471c10.917 0 19.797 8.881 19.797 19.798z"/></svg>